<mxfile host="app.diagrams.net" modified="2022-10-24T09:45:42.183Z" agent="5.0 (Windows NT 10.0; Win64; x64) AppleWebKit/537.36 (KHTML, like Gecko) Chrome/106.0.0.0 Safari/537.36" etag="b-LWwZ2qW636gG7AaWv-" version="20.5.1" type="github">
  <diagram id="7PvPLA8Qp05anSQ-F2iL" name="Страница 1">
    <mxGraphModel dx="2062" dy="1154" grid="0" gridSize="10" guides="1" tooltips="1" connect="1" arrows="1" fold="1" page="1" pageScale="1" pageWidth="1169" pageHeight="827" background="#F4F1DE" math="0" shadow="0">
      <root>
        <mxCell id="0" />
        <mxCell id="1" parent="0" />
        <object label="films" duration="" id="9V3JGl1Kdx17sB_CRehY-2">
          <mxCell style="shape=table;startSize=30;container=1;collapsible=1;childLayout=tableLayout;fixedRows=1;rowLines=0;fontStyle=1;align=center;resizeLast=1;rounded=1;swimlaneFillColor=none;fillColor=#F2CC8F;strokeColor=#E07A5F;fontColor=#393C56;" vertex="1" parent="1">
            <mxGeometry x="505" y="209" width="180" height="240" as="geometry" />
          </mxCell>
        </object>
        <mxCell id="9V3JGl1Kdx17sB_CRehY-3" value="" style="shape=tableRow;horizontal=0;startSize=0;swimlaneHead=0;swimlaneBody=0;fillColor=none;collapsible=0;dropTarget=0;points=[[0,0.5],[1,0.5]];portConstraint=eastwest;top=0;left=0;right=0;bottom=1;rounded=1;strokeColor=#E07A5F;fontColor=#393C56;" vertex="1" parent="9V3JGl1Kdx17sB_CRehY-2">
          <mxGeometry y="30" width="180" height="30" as="geometry" />
        </mxCell>
        <mxCell id="9V3JGl1Kdx17sB_CRehY-4" value="PK" style="shape=partialRectangle;connectable=0;fillColor=none;top=0;left=0;bottom=0;right=0;fontStyle=1;overflow=hidden;rounded=1;strokeColor=#E07A5F;fontColor=#393C56;" vertex="1" parent="9V3JGl1Kdx17sB_CRehY-3">
          <mxGeometry width="30" height="30" as="geometry">
            <mxRectangle width="30" height="30" as="alternateBounds" />
          </mxGeometry>
        </mxCell>
        <mxCell id="9V3JGl1Kdx17sB_CRehY-5" value="id" style="shape=partialRectangle;connectable=0;fillColor=none;top=0;left=0;bottom=0;right=0;align=left;spacingLeft=6;fontStyle=5;overflow=hidden;rounded=1;strokeColor=#E07A5F;fontColor=#393C56;" vertex="1" parent="9V3JGl1Kdx17sB_CRehY-3">
          <mxGeometry x="30" width="150" height="30" as="geometry">
            <mxRectangle width="150" height="30" as="alternateBounds" />
          </mxGeometry>
        </mxCell>
        <mxCell id="9V3JGl1Kdx17sB_CRehY-6" value="" style="shape=tableRow;horizontal=0;startSize=0;swimlaneHead=0;swimlaneBody=0;fillColor=none;collapsible=0;dropTarget=0;points=[[0,0.5],[1,0.5]];portConstraint=eastwest;top=0;left=0;right=0;bottom=0;rounded=1;strokeColor=#E07A5F;fontColor=#393C56;" vertex="1" parent="9V3JGl1Kdx17sB_CRehY-2">
          <mxGeometry y="60" width="180" height="30" as="geometry" />
        </mxCell>
        <mxCell id="9V3JGl1Kdx17sB_CRehY-7" value="" style="shape=partialRectangle;connectable=0;fillColor=none;top=0;left=0;bottom=0;right=0;editable=1;overflow=hidden;rounded=1;strokeColor=#E07A5F;fontColor=#393C56;" vertex="1" parent="9V3JGl1Kdx17sB_CRehY-6">
          <mxGeometry width="30" height="30" as="geometry">
            <mxRectangle width="30" height="30" as="alternateBounds" />
          </mxGeometry>
        </mxCell>
        <mxCell id="9V3JGl1Kdx17sB_CRehY-8" value="name" style="shape=partialRectangle;connectable=0;fillColor=none;top=0;left=0;bottom=0;right=0;align=left;spacingLeft=6;overflow=hidden;rounded=1;strokeColor=#E07A5F;fontColor=#393C56;" vertex="1" parent="9V3JGl1Kdx17sB_CRehY-6">
          <mxGeometry x="30" width="150" height="30" as="geometry">
            <mxRectangle width="150" height="30" as="alternateBounds" />
          </mxGeometry>
        </mxCell>
        <mxCell id="9V3JGl1Kdx17sB_CRehY-9" value="" style="shape=tableRow;horizontal=0;startSize=0;swimlaneHead=0;swimlaneBody=0;fillColor=none;collapsible=0;dropTarget=0;points=[[0,0.5],[1,0.5]];portConstraint=eastwest;top=0;left=0;right=0;bottom=0;rounded=1;strokeColor=#E07A5F;fontColor=#393C56;" vertex="1" parent="9V3JGl1Kdx17sB_CRehY-2">
          <mxGeometry y="90" width="180" height="30" as="geometry" />
        </mxCell>
        <mxCell id="9V3JGl1Kdx17sB_CRehY-10" value="" style="shape=partialRectangle;connectable=0;fillColor=none;top=0;left=0;bottom=0;right=0;editable=1;overflow=hidden;rounded=1;strokeColor=#E07A5F;fontColor=#393C56;" vertex="1" parent="9V3JGl1Kdx17sB_CRehY-9">
          <mxGeometry width="30" height="30" as="geometry">
            <mxRectangle width="30" height="30" as="alternateBounds" />
          </mxGeometry>
        </mxCell>
        <mxCell id="9V3JGl1Kdx17sB_CRehY-11" value="description" style="shape=partialRectangle;connectable=0;fillColor=none;top=0;left=0;bottom=0;right=0;align=left;spacingLeft=6;overflow=hidden;rounded=1;strokeColor=#E07A5F;fontColor=#393C56;" vertex="1" parent="9V3JGl1Kdx17sB_CRehY-9">
          <mxGeometry x="30" width="150" height="30" as="geometry">
            <mxRectangle width="150" height="30" as="alternateBounds" />
          </mxGeometry>
        </mxCell>
        <mxCell id="9V3JGl1Kdx17sB_CRehY-12" value="" style="shape=tableRow;horizontal=0;startSize=0;swimlaneHead=0;swimlaneBody=0;fillColor=none;collapsible=0;dropTarget=0;points=[[0,0.5],[1,0.5]];portConstraint=eastwest;top=0;left=0;right=0;bottom=0;rounded=1;strokeColor=#E07A5F;fontColor=#393C56;" vertex="1" parent="9V3JGl1Kdx17sB_CRehY-2">
          <mxGeometry y="120" width="180" height="30" as="geometry" />
        </mxCell>
        <mxCell id="9V3JGl1Kdx17sB_CRehY-13" value="" style="shape=partialRectangle;connectable=0;fillColor=none;top=0;left=0;bottom=0;right=0;editable=1;overflow=hidden;rounded=1;strokeColor=#E07A5F;fontColor=#393C56;" vertex="1" parent="9V3JGl1Kdx17sB_CRehY-12">
          <mxGeometry width="30" height="30" as="geometry">
            <mxRectangle width="30" height="30" as="alternateBounds" />
          </mxGeometry>
        </mxCell>
        <mxCell id="9V3JGl1Kdx17sB_CRehY-14" value="release_date" style="shape=partialRectangle;connectable=0;fillColor=none;top=0;left=0;bottom=0;right=0;align=left;spacingLeft=6;overflow=hidden;rounded=1;strokeColor=#E07A5F;fontColor=#393C56;" vertex="1" parent="9V3JGl1Kdx17sB_CRehY-12">
          <mxGeometry x="30" width="150" height="30" as="geometry">
            <mxRectangle width="150" height="30" as="alternateBounds" />
          </mxGeometry>
        </mxCell>
        <mxCell id="9V3JGl1Kdx17sB_CRehY-122" style="shape=tableRow;horizontal=0;startSize=0;swimlaneHead=0;swimlaneBody=0;fillColor=none;collapsible=0;dropTarget=0;points=[[0,0.5],[1,0.5]];portConstraint=eastwest;top=0;left=0;right=0;bottom=0;rounded=1;strokeColor=#E07A5F;fontColor=#393C56;" vertex="1" parent="9V3JGl1Kdx17sB_CRehY-2">
          <mxGeometry y="150" width="180" height="30" as="geometry" />
        </mxCell>
        <mxCell id="9V3JGl1Kdx17sB_CRehY-123" style="shape=partialRectangle;connectable=0;fillColor=none;top=0;left=0;bottom=0;right=0;editable=1;overflow=hidden;rounded=1;strokeColor=#E07A5F;fontColor=#393C56;" vertex="1" parent="9V3JGl1Kdx17sB_CRehY-122">
          <mxGeometry width="30" height="30" as="geometry">
            <mxRectangle width="30" height="30" as="alternateBounds" />
          </mxGeometry>
        </mxCell>
        <mxCell id="9V3JGl1Kdx17sB_CRehY-124" value="duration" style="shape=partialRectangle;connectable=0;fillColor=none;top=0;left=0;bottom=0;right=0;align=left;spacingLeft=6;overflow=hidden;rounded=1;strokeColor=#E07A5F;fontColor=#393C56;" vertex="1" parent="9V3JGl1Kdx17sB_CRehY-122">
          <mxGeometry x="30" width="150" height="30" as="geometry">
            <mxRectangle width="150" height="30" as="alternateBounds" />
          </mxGeometry>
        </mxCell>
        <mxCell id="9V3JGl1Kdx17sB_CRehY-190" style="shape=tableRow;horizontal=0;startSize=0;swimlaneHead=0;swimlaneBody=0;fillColor=none;collapsible=0;dropTarget=0;points=[[0,0.5],[1,0.5]];portConstraint=eastwest;top=0;left=0;right=0;bottom=0;rounded=1;strokeColor=#E07A5F;fontColor=#393C56;" vertex="1" parent="9V3JGl1Kdx17sB_CRehY-2">
          <mxGeometry y="180" width="180" height="30" as="geometry" />
        </mxCell>
        <mxCell id="9V3JGl1Kdx17sB_CRehY-191" value="FK" style="shape=partialRectangle;connectable=0;fillColor=none;top=0;left=0;bottom=0;right=0;editable=1;overflow=hidden;rounded=1;strokeColor=#E07A5F;fontColor=#393C56;" vertex="1" parent="9V3JGl1Kdx17sB_CRehY-190">
          <mxGeometry width="30" height="30" as="geometry">
            <mxRectangle width="30" height="30" as="alternateBounds" />
          </mxGeometry>
        </mxCell>
        <mxCell id="9V3JGl1Kdx17sB_CRehY-192" value="rating" style="shape=partialRectangle;connectable=0;fillColor=none;top=0;left=0;bottom=0;right=0;align=left;spacingLeft=6;overflow=hidden;rounded=1;strokeColor=#E07A5F;fontColor=#393C56;" vertex="1" parent="9V3JGl1Kdx17sB_CRehY-190">
          <mxGeometry x="30" width="150" height="30" as="geometry">
            <mxRectangle width="150" height="30" as="alternateBounds" />
          </mxGeometry>
        </mxCell>
        <mxCell id="9V3JGl1Kdx17sB_CRehY-194" style="shape=tableRow;horizontal=0;startSize=0;swimlaneHead=0;swimlaneBody=0;fillColor=none;collapsible=0;dropTarget=0;points=[[0,0.5],[1,0.5]];portConstraint=eastwest;top=0;left=0;right=0;bottom=0;rounded=1;strokeColor=#E07A5F;fontColor=#393C56;" vertex="1" parent="9V3JGl1Kdx17sB_CRehY-2">
          <mxGeometry y="210" width="180" height="30" as="geometry" />
        </mxCell>
        <mxCell id="9V3JGl1Kdx17sB_CRehY-195" value="FK" style="shape=partialRectangle;connectable=0;fillColor=none;top=0;left=0;bottom=0;right=0;editable=1;overflow=hidden;rounded=1;strokeColor=#E07A5F;fontColor=#393C56;" vertex="1" parent="9V3JGl1Kdx17sB_CRehY-194">
          <mxGeometry width="30" height="30" as="geometry">
            <mxRectangle width="30" height="30" as="alternateBounds" />
          </mxGeometry>
        </mxCell>
        <mxCell id="9V3JGl1Kdx17sB_CRehY-196" value="genre" style="shape=partialRectangle;connectable=0;fillColor=none;top=0;left=0;bottom=0;right=0;align=left;spacingLeft=6;overflow=hidden;rounded=1;strokeColor=#E07A5F;fontColor=#393C56;" vertex="1" parent="9V3JGl1Kdx17sB_CRehY-194">
          <mxGeometry x="30" width="150" height="30" as="geometry">
            <mxRectangle width="150" height="30" as="alternateBounds" />
          </mxGeometry>
        </mxCell>
        <mxCell id="9V3JGl1Kdx17sB_CRehY-31" value="" style="shape=tableRow;horizontal=0;startSize=0;swimlaneHead=0;swimlaneBody=0;fillColor=none;collapsible=0;dropTarget=0;points=[[0,0.5],[1,0.5]];portConstraint=eastwest;top=0;left=0;right=0;bottom=0;rounded=1;strokeColor=#E07A5F;fontColor=#393C56;" vertex="1" parent="1">
          <mxGeometry x="525" y="359" width="180" height="30" as="geometry" />
        </mxCell>
        <mxCell id="9V3JGl1Kdx17sB_CRehY-98" value="users " style="shape=table;startSize=30;container=1;collapsible=1;childLayout=tableLayout;fixedRows=1;rowLines=0;fontStyle=1;align=center;resizeLast=1;rounded=1;fillColor=#F2CC8F;strokeColor=#E07A5F;fontColor=#393C56;" vertex="1" parent="1">
          <mxGeometry x="215" y="439" width="180" height="180" as="geometry" />
        </mxCell>
        <mxCell id="9V3JGl1Kdx17sB_CRehY-99" value="" style="shape=tableRow;horizontal=0;startSize=0;swimlaneHead=0;swimlaneBody=0;fillColor=none;collapsible=0;dropTarget=0;points=[[0,0.5],[1,0.5]];portConstraint=eastwest;top=0;left=0;right=0;bottom=1;rounded=1;strokeColor=#E07A5F;fontColor=#393C56;" vertex="1" parent="9V3JGl1Kdx17sB_CRehY-98">
          <mxGeometry y="30" width="180" height="30" as="geometry" />
        </mxCell>
        <mxCell id="9V3JGl1Kdx17sB_CRehY-100" value="PK" style="shape=partialRectangle;connectable=0;fillColor=none;top=0;left=0;bottom=0;right=0;fontStyle=1;overflow=hidden;rounded=1;strokeColor=#E07A5F;fontColor=#393C56;" vertex="1" parent="9V3JGl1Kdx17sB_CRehY-99">
          <mxGeometry width="30" height="30" as="geometry">
            <mxRectangle width="30" height="30" as="alternateBounds" />
          </mxGeometry>
        </mxCell>
        <mxCell id="9V3JGl1Kdx17sB_CRehY-101" value="id" style="shape=partialRectangle;connectable=0;fillColor=none;top=0;left=0;bottom=0;right=0;align=left;spacingLeft=6;fontStyle=5;overflow=hidden;rounded=1;strokeColor=#E07A5F;fontColor=#393C56;" vertex="1" parent="9V3JGl1Kdx17sB_CRehY-99">
          <mxGeometry x="30" width="150" height="30" as="geometry">
            <mxRectangle width="150" height="30" as="alternateBounds" />
          </mxGeometry>
        </mxCell>
        <mxCell id="9V3JGl1Kdx17sB_CRehY-102" value="" style="shape=tableRow;horizontal=0;startSize=0;swimlaneHead=0;swimlaneBody=0;fillColor=none;collapsible=0;dropTarget=0;points=[[0,0.5],[1,0.5]];portConstraint=eastwest;top=0;left=0;right=0;bottom=0;rounded=1;strokeColor=#E07A5F;fontColor=#393C56;" vertex="1" parent="9V3JGl1Kdx17sB_CRehY-98">
          <mxGeometry y="60" width="180" height="30" as="geometry" />
        </mxCell>
        <mxCell id="9V3JGl1Kdx17sB_CRehY-103" value="" style="shape=partialRectangle;connectable=0;fillColor=none;top=0;left=0;bottom=0;right=0;editable=1;overflow=hidden;rounded=1;strokeColor=#E07A5F;fontColor=#393C56;" vertex="1" parent="9V3JGl1Kdx17sB_CRehY-102">
          <mxGeometry width="30" height="30" as="geometry">
            <mxRectangle width="30" height="30" as="alternateBounds" />
          </mxGeometry>
        </mxCell>
        <mxCell id="9V3JGl1Kdx17sB_CRehY-104" value="email" style="shape=partialRectangle;connectable=0;fillColor=none;top=0;left=0;bottom=0;right=0;align=left;spacingLeft=6;overflow=hidden;rounded=1;strokeColor=#E07A5F;fontColor=#393C56;" vertex="1" parent="9V3JGl1Kdx17sB_CRehY-102">
          <mxGeometry x="30" width="150" height="30" as="geometry">
            <mxRectangle width="150" height="30" as="alternateBounds" />
          </mxGeometry>
        </mxCell>
        <mxCell id="9V3JGl1Kdx17sB_CRehY-105" value="" style="shape=tableRow;horizontal=0;startSize=0;swimlaneHead=0;swimlaneBody=0;fillColor=none;collapsible=0;dropTarget=0;points=[[0,0.5],[1,0.5]];portConstraint=eastwest;top=0;left=0;right=0;bottom=0;rounded=1;strokeColor=#E07A5F;fontColor=#393C56;" vertex="1" parent="9V3JGl1Kdx17sB_CRehY-98">
          <mxGeometry y="90" width="180" height="30" as="geometry" />
        </mxCell>
        <mxCell id="9V3JGl1Kdx17sB_CRehY-106" value="" style="shape=partialRectangle;connectable=0;fillColor=none;top=0;left=0;bottom=0;right=0;editable=1;overflow=hidden;rounded=1;strokeColor=#E07A5F;fontColor=#393C56;" vertex="1" parent="9V3JGl1Kdx17sB_CRehY-105">
          <mxGeometry width="30" height="30" as="geometry">
            <mxRectangle width="30" height="30" as="alternateBounds" />
          </mxGeometry>
        </mxCell>
        <mxCell id="9V3JGl1Kdx17sB_CRehY-107" value="login" style="shape=partialRectangle;connectable=0;fillColor=none;top=0;left=0;bottom=0;right=0;align=left;spacingLeft=6;overflow=hidden;rounded=1;strokeColor=#E07A5F;fontColor=#393C56;" vertex="1" parent="9V3JGl1Kdx17sB_CRehY-105">
          <mxGeometry x="30" width="150" height="30" as="geometry">
            <mxRectangle width="150" height="30" as="alternateBounds" />
          </mxGeometry>
        </mxCell>
        <mxCell id="9V3JGl1Kdx17sB_CRehY-108" value="" style="shape=tableRow;horizontal=0;startSize=0;swimlaneHead=0;swimlaneBody=0;fillColor=none;collapsible=0;dropTarget=0;points=[[0,0.5],[1,0.5]];portConstraint=eastwest;top=0;left=0;right=0;bottom=0;rounded=1;strokeColor=#E07A5F;fontColor=#393C56;" vertex="1" parent="9V3JGl1Kdx17sB_CRehY-98">
          <mxGeometry y="120" width="180" height="30" as="geometry" />
        </mxCell>
        <mxCell id="9V3JGl1Kdx17sB_CRehY-109" value="" style="shape=partialRectangle;connectable=0;fillColor=none;top=0;left=0;bottom=0;right=0;editable=1;overflow=hidden;rounded=1;strokeColor=#E07A5F;fontColor=#393C56;" vertex="1" parent="9V3JGl1Kdx17sB_CRehY-108">
          <mxGeometry width="30" height="30" as="geometry">
            <mxRectangle width="30" height="30" as="alternateBounds" />
          </mxGeometry>
        </mxCell>
        <mxCell id="9V3JGl1Kdx17sB_CRehY-110" value="name" style="shape=partialRectangle;connectable=0;fillColor=none;top=0;left=0;bottom=0;right=0;align=left;spacingLeft=6;overflow=hidden;rounded=1;strokeColor=#E07A5F;fontColor=#393C56;" vertex="1" parent="9V3JGl1Kdx17sB_CRehY-108">
          <mxGeometry x="30" width="150" height="30" as="geometry">
            <mxRectangle width="150" height="30" as="alternateBounds" />
          </mxGeometry>
        </mxCell>
        <mxCell id="9V3JGl1Kdx17sB_CRehY-125" style="shape=tableRow;horizontal=0;startSize=0;swimlaneHead=0;swimlaneBody=0;fillColor=none;collapsible=0;dropTarget=0;points=[[0,0.5],[1,0.5]];portConstraint=eastwest;top=0;left=0;right=0;bottom=0;rounded=1;strokeColor=#E07A5F;fontColor=#393C56;" vertex="1" parent="9V3JGl1Kdx17sB_CRehY-98">
          <mxGeometry y="150" width="180" height="30" as="geometry" />
        </mxCell>
        <mxCell id="9V3JGl1Kdx17sB_CRehY-126" style="shape=partialRectangle;connectable=0;fillColor=none;top=0;left=0;bottom=0;right=0;editable=1;overflow=hidden;rounded=1;strokeColor=#E07A5F;fontColor=#393C56;" vertex="1" parent="9V3JGl1Kdx17sB_CRehY-125">
          <mxGeometry width="30" height="30" as="geometry">
            <mxRectangle width="30" height="30" as="alternateBounds" />
          </mxGeometry>
        </mxCell>
        <mxCell id="9V3JGl1Kdx17sB_CRehY-127" value="birthday" style="shape=partialRectangle;connectable=0;fillColor=none;top=0;left=0;bottom=0;right=0;align=left;spacingLeft=6;overflow=hidden;rounded=1;strokeColor=#E07A5F;fontColor=#393C56;" vertex="1" parent="9V3JGl1Kdx17sB_CRehY-125">
          <mxGeometry x="30" width="150" height="30" as="geometry">
            <mxRectangle width="150" height="30" as="alternateBounds" />
          </mxGeometry>
        </mxCell>
        <mxCell id="9V3JGl1Kdx17sB_CRehY-128" value="likes" style="shape=table;startSize=30;container=1;collapsible=1;childLayout=tableLayout;fixedRows=1;rowLines=0;fontStyle=1;align=center;resizeLast=1;rounded=1;fillColor=#F2CC8F;strokeColor=#E07A5F;fontColor=#393C56;" vertex="1" parent="1">
          <mxGeometry x="215" y="209" width="180" height="100" as="geometry" />
        </mxCell>
        <mxCell id="9V3JGl1Kdx17sB_CRehY-129" value="" style="shape=tableRow;horizontal=0;startSize=0;swimlaneHead=0;swimlaneBody=0;fillColor=none;collapsible=0;dropTarget=0;points=[[0,0.5],[1,0.5]];portConstraint=eastwest;top=0;left=0;right=0;bottom=1;rounded=1;strokeColor=#E07A5F;fontColor=#393C56;" vertex="1" parent="9V3JGl1Kdx17sB_CRehY-128">
          <mxGeometry y="30" width="180" height="30" as="geometry" />
        </mxCell>
        <mxCell id="9V3JGl1Kdx17sB_CRehY-130" value="PK" style="shape=partialRectangle;connectable=0;fillColor=none;top=0;left=0;bottom=0;right=0;fontStyle=1;overflow=hidden;rounded=1;strokeColor=#E07A5F;fontColor=#393C56;" vertex="1" parent="9V3JGl1Kdx17sB_CRehY-129">
          <mxGeometry width="30" height="30" as="geometry">
            <mxRectangle width="30" height="30" as="alternateBounds" />
          </mxGeometry>
        </mxCell>
        <mxCell id="9V3JGl1Kdx17sB_CRehY-131" value="film_id" style="shape=partialRectangle;connectable=0;fillColor=none;top=0;left=0;bottom=0;right=0;align=left;spacingLeft=6;fontStyle=5;overflow=hidden;rounded=1;strokeColor=#E07A5F;fontColor=#393C56;" vertex="1" parent="9V3JGl1Kdx17sB_CRehY-129">
          <mxGeometry x="30" width="150" height="30" as="geometry">
            <mxRectangle width="150" height="30" as="alternateBounds" />
          </mxGeometry>
        </mxCell>
        <mxCell id="9V3JGl1Kdx17sB_CRehY-132" value="" style="shape=tableRow;horizontal=0;startSize=0;swimlaneHead=0;swimlaneBody=0;fillColor=none;collapsible=0;dropTarget=0;points=[[0,0.5],[1,0.5]];portConstraint=eastwest;top=0;left=0;right=0;bottom=0;rounded=1;strokeColor=#E07A5F;fontColor=#393C56;" vertex="1" parent="9V3JGl1Kdx17sB_CRehY-128">
          <mxGeometry y="60" width="180" height="30" as="geometry" />
        </mxCell>
        <mxCell id="9V3JGl1Kdx17sB_CRehY-133" value="FK" style="shape=partialRectangle;connectable=0;fillColor=none;top=0;left=0;bottom=0;right=0;editable=1;overflow=hidden;rounded=1;strokeColor=#E07A5F;fontColor=#393C56;" vertex="1" parent="9V3JGl1Kdx17sB_CRehY-132">
          <mxGeometry width="30" height="30" as="geometry">
            <mxRectangle width="30" height="30" as="alternateBounds" />
          </mxGeometry>
        </mxCell>
        <mxCell id="9V3JGl1Kdx17sB_CRehY-134" value="user_id" style="shape=partialRectangle;connectable=0;fillColor=none;top=0;left=0;bottom=0;right=0;align=left;spacingLeft=6;overflow=hidden;rounded=1;strokeColor=#E07A5F;fontColor=#393C56;" vertex="1" parent="9V3JGl1Kdx17sB_CRehY-132">
          <mxGeometry x="30" width="150" height="30" as="geometry">
            <mxRectangle width="150" height="30" as="alternateBounds" />
          </mxGeometry>
        </mxCell>
        <mxCell id="9V3JGl1Kdx17sB_CRehY-141" value="" style="edgeStyle=entityRelationEdgeStyle;fontSize=12;html=1;endArrow=ERoneToMany;rounded=1;curved=1;strokeColor=#E07A5F;fontColor=#393C56;labelBackgroundColor=#F4F1DE;" edge="1" parent="1" source="9V3JGl1Kdx17sB_CRehY-3" target="9V3JGl1Kdx17sB_CRehY-129">
          <mxGeometry width="100" height="100" relative="1" as="geometry">
            <mxPoint x="555" y="479" as="sourcePoint" />
            <mxPoint x="655" y="379" as="targetPoint" />
          </mxGeometry>
        </mxCell>
        <mxCell id="9V3JGl1Kdx17sB_CRehY-146" value="friends" style="shape=table;startSize=50;container=1;collapsible=1;childLayout=tableLayout;fixedRows=1;rowLines=0;fontStyle=1;align=center;resizeLast=1;rounded=1;fillColor=#F2CC8F;strokeColor=#E07A5F;fontColor=#393C56;" vertex="1" parent="1">
          <mxGeometry x="505" y="479" width="180" height="140" as="geometry" />
        </mxCell>
        <mxCell id="9V3JGl1Kdx17sB_CRehY-147" value="" style="shape=tableRow;horizontal=0;startSize=0;swimlaneHead=0;swimlaneBody=0;fillColor=none;collapsible=0;dropTarget=0;points=[[0,0.5],[1,0.5]];portConstraint=eastwest;top=0;left=0;right=0;bottom=1;rounded=1;strokeColor=#E07A5F;fontColor=#393C56;" vertex="1" parent="9V3JGl1Kdx17sB_CRehY-146">
          <mxGeometry y="50" width="180" height="30" as="geometry" />
        </mxCell>
        <mxCell id="9V3JGl1Kdx17sB_CRehY-148" value="PK" style="shape=partialRectangle;connectable=0;fillColor=none;top=0;left=0;bottom=0;right=0;fontStyle=1;overflow=hidden;rounded=1;strokeColor=#E07A5F;fontColor=#393C56;" vertex="1" parent="9V3JGl1Kdx17sB_CRehY-147">
          <mxGeometry width="30" height="30" as="geometry">
            <mxRectangle width="30" height="30" as="alternateBounds" />
          </mxGeometry>
        </mxCell>
        <mxCell id="9V3JGl1Kdx17sB_CRehY-149" value="user_id" style="shape=partialRectangle;connectable=0;fillColor=none;top=0;left=0;bottom=0;right=0;align=left;spacingLeft=6;fontStyle=5;overflow=hidden;rounded=1;strokeColor=#E07A5F;fontColor=#393C56;" vertex="1" parent="9V3JGl1Kdx17sB_CRehY-147">
          <mxGeometry x="30" width="150" height="30" as="geometry">
            <mxRectangle width="150" height="30" as="alternateBounds" />
          </mxGeometry>
        </mxCell>
        <mxCell id="9V3JGl1Kdx17sB_CRehY-150" value="" style="shape=tableRow;horizontal=0;startSize=0;swimlaneHead=0;swimlaneBody=0;fillColor=none;collapsible=0;dropTarget=0;points=[[0,0.5],[1,0.5]];portConstraint=eastwest;top=0;left=0;right=0;bottom=0;rounded=1;strokeColor=#E07A5F;fontColor=#393C56;" vertex="1" parent="9V3JGl1Kdx17sB_CRehY-146">
          <mxGeometry y="80" width="180" height="30" as="geometry" />
        </mxCell>
        <mxCell id="9V3JGl1Kdx17sB_CRehY-151" value="" style="shape=partialRectangle;connectable=0;fillColor=none;top=0;left=0;bottom=0;right=0;editable=1;overflow=hidden;rounded=1;strokeColor=#E07A5F;fontColor=#393C56;" vertex="1" parent="9V3JGl1Kdx17sB_CRehY-150">
          <mxGeometry width="30" height="30" as="geometry">
            <mxRectangle width="30" height="30" as="alternateBounds" />
          </mxGeometry>
        </mxCell>
        <mxCell id="9V3JGl1Kdx17sB_CRehY-152" value="friend_id" style="shape=partialRectangle;connectable=0;fillColor=none;top=0;left=0;bottom=0;right=0;align=left;spacingLeft=6;overflow=hidden;rounded=1;strokeColor=#E07A5F;fontColor=#393C56;" vertex="1" parent="9V3JGl1Kdx17sB_CRehY-150">
          <mxGeometry x="30" width="150" height="30" as="geometry">
            <mxRectangle width="150" height="30" as="alternateBounds" />
          </mxGeometry>
        </mxCell>
        <mxCell id="9V3JGl1Kdx17sB_CRehY-153" value="" style="shape=tableRow;horizontal=0;startSize=0;swimlaneHead=0;swimlaneBody=0;fillColor=none;collapsible=0;dropTarget=0;points=[[0,0.5],[1,0.5]];portConstraint=eastwest;top=0;left=0;right=0;bottom=0;rounded=1;strokeColor=#E07A5F;fontColor=#393C56;" vertex="1" parent="9V3JGl1Kdx17sB_CRehY-146">
          <mxGeometry y="110" width="180" height="30" as="geometry" />
        </mxCell>
        <mxCell id="9V3JGl1Kdx17sB_CRehY-154" value="" style="shape=partialRectangle;connectable=0;fillColor=none;top=0;left=0;bottom=0;right=0;editable=1;overflow=hidden;rounded=1;strokeColor=#E07A5F;fontColor=#393C56;" vertex="1" parent="9V3JGl1Kdx17sB_CRehY-153">
          <mxGeometry width="30" height="30" as="geometry">
            <mxRectangle width="30" height="30" as="alternateBounds" />
          </mxGeometry>
        </mxCell>
        <mxCell id="9V3JGl1Kdx17sB_CRehY-155" value="is_confirmed" style="shape=partialRectangle;connectable=0;fillColor=none;top=0;left=0;bottom=0;right=0;align=left;spacingLeft=6;overflow=hidden;rounded=1;strokeColor=#E07A5F;fontColor=#393C56;" vertex="1" parent="9V3JGl1Kdx17sB_CRehY-153">
          <mxGeometry x="30" width="150" height="30" as="geometry">
            <mxRectangle width="150" height="30" as="alternateBounds" />
          </mxGeometry>
        </mxCell>
        <mxCell id="9V3JGl1Kdx17sB_CRehY-159" value="" style="edgeStyle=entityRelationEdgeStyle;fontSize=12;html=1;endArrow=ERoneToMany;rounded=1;entryX=0;entryY=0.5;entryDx=0;entryDy=0;curved=1;strokeColor=#E07A5F;fontColor=#393C56;labelBackgroundColor=#F4F1DE;" edge="1" parent="1" source="9V3JGl1Kdx17sB_CRehY-99" target="9V3JGl1Kdx17sB_CRehY-147">
          <mxGeometry width="100" height="100" relative="1" as="geometry">
            <mxPoint x="695" y="549" as="sourcePoint" />
            <mxPoint x="795" y="449" as="targetPoint" />
          </mxGeometry>
        </mxCell>
        <mxCell id="9V3JGl1Kdx17sB_CRehY-160" value="" style="edgeStyle=entityRelationEdgeStyle;fontSize=12;html=1;endArrow=ERoneToMany;rounded=1;entryX=0;entryY=0.5;entryDx=0;entryDy=0;curved=1;strokeColor=#E07A5F;fontColor=#393C56;labelBackgroundColor=#F4F1DE;" edge="1" parent="1" source="9V3JGl1Kdx17sB_CRehY-99" target="9V3JGl1Kdx17sB_CRehY-150">
          <mxGeometry width="100" height="100" relative="1" as="geometry">
            <mxPoint x="695" y="549" as="sourcePoint" />
            <mxPoint x="795" y="449" as="targetPoint" />
          </mxGeometry>
        </mxCell>
        <mxCell id="9V3JGl1Kdx17sB_CRehY-177" value="rating" style="shape=table;startSize=30;container=1;collapsible=1;childLayout=tableLayout;fixedRows=1;rowLines=0;fontStyle=1;align=center;resizeLast=1;rounded=1;fillColor=#F2CC8F;strokeColor=#E07A5F;fontColor=#393C56;" vertex="1" parent="1">
          <mxGeometry x="775" y="209" width="180" height="120" as="geometry" />
        </mxCell>
        <mxCell id="9V3JGl1Kdx17sB_CRehY-178" value="" style="shape=tableRow;horizontal=0;startSize=0;swimlaneHead=0;swimlaneBody=0;fillColor=none;collapsible=0;dropTarget=0;points=[[0,0.5],[1,0.5]];portConstraint=eastwest;top=0;left=0;right=0;bottom=1;rounded=1;strokeColor=#E07A5F;fontColor=#393C56;" vertex="1" parent="9V3JGl1Kdx17sB_CRehY-177">
          <mxGeometry y="30" width="180" height="30" as="geometry" />
        </mxCell>
        <mxCell id="9V3JGl1Kdx17sB_CRehY-179" value="PK" style="shape=partialRectangle;connectable=0;fillColor=none;top=0;left=0;bottom=0;right=0;fontStyle=1;overflow=hidden;rounded=1;strokeColor=#E07A5F;fontColor=#393C56;" vertex="1" parent="9V3JGl1Kdx17sB_CRehY-178">
          <mxGeometry width="30" height="30" as="geometry">
            <mxRectangle width="30" height="30" as="alternateBounds" />
          </mxGeometry>
        </mxCell>
        <mxCell id="9V3JGl1Kdx17sB_CRehY-180" value="rating_id" style="shape=partialRectangle;connectable=0;fillColor=none;top=0;left=0;bottom=0;right=0;align=left;spacingLeft=6;fontStyle=5;overflow=hidden;rounded=1;strokeColor=#E07A5F;fontColor=#393C56;" vertex="1" parent="9V3JGl1Kdx17sB_CRehY-178">
          <mxGeometry x="30" width="150" height="30" as="geometry">
            <mxRectangle width="150" height="30" as="alternateBounds" />
          </mxGeometry>
        </mxCell>
        <mxCell id="9V3JGl1Kdx17sB_CRehY-211" style="shape=tableRow;horizontal=0;startSize=0;swimlaneHead=0;swimlaneBody=0;fillColor=none;collapsible=0;dropTarget=0;points=[[0,0.5],[1,0.5]];portConstraint=eastwest;top=0;left=0;right=0;bottom=0;rounded=1;strokeColor=#E07A5F;fontColor=#393C56;" vertex="1" parent="9V3JGl1Kdx17sB_CRehY-177">
          <mxGeometry y="60" width="180" height="30" as="geometry" />
        </mxCell>
        <mxCell id="9V3JGl1Kdx17sB_CRehY-212" style="shape=partialRectangle;connectable=0;fillColor=none;top=0;left=0;bottom=0;right=0;editable=1;overflow=hidden;rounded=1;strokeColor=#E07A5F;fontColor=#393C56;" vertex="1" parent="9V3JGl1Kdx17sB_CRehY-211">
          <mxGeometry width="30" height="30" as="geometry">
            <mxRectangle width="30" height="30" as="alternateBounds" />
          </mxGeometry>
        </mxCell>
        <mxCell id="9V3JGl1Kdx17sB_CRehY-213" value="rating_name" style="shape=partialRectangle;connectable=0;fillColor=none;top=0;left=0;bottom=0;right=0;align=left;spacingLeft=6;overflow=hidden;rounded=1;strokeColor=#E07A5F;fontColor=#393C56;" vertex="1" parent="9V3JGl1Kdx17sB_CRehY-211">
          <mxGeometry x="30" width="150" height="30" as="geometry">
            <mxRectangle width="150" height="30" as="alternateBounds" />
          </mxGeometry>
        </mxCell>
        <mxCell id="9V3JGl1Kdx17sB_CRehY-181" value="" style="shape=tableRow;horizontal=0;startSize=0;swimlaneHead=0;swimlaneBody=0;fillColor=none;collapsible=0;dropTarget=0;points=[[0,0.5],[1,0.5]];portConstraint=eastwest;top=0;left=0;right=0;bottom=0;rounded=1;strokeColor=#E07A5F;fontColor=#393C56;" vertex="1" parent="9V3JGl1Kdx17sB_CRehY-177">
          <mxGeometry y="90" width="180" height="30" as="geometry" />
        </mxCell>
        <mxCell id="9V3JGl1Kdx17sB_CRehY-182" value="" style="shape=partialRectangle;connectable=0;fillColor=none;top=0;left=0;bottom=0;right=0;editable=1;overflow=hidden;rounded=1;strokeColor=#E07A5F;fontColor=#393C56;" vertex="1" parent="9V3JGl1Kdx17sB_CRehY-181">
          <mxGeometry width="30" height="30" as="geometry">
            <mxRectangle width="30" height="30" as="alternateBounds" />
          </mxGeometry>
        </mxCell>
        <mxCell id="9V3JGl1Kdx17sB_CRehY-183" value="decription" style="shape=partialRectangle;connectable=0;fillColor=none;top=0;left=0;bottom=0;right=0;align=left;spacingLeft=6;overflow=hidden;rounded=1;strokeColor=#E07A5F;fontColor=#393C56;" vertex="1" parent="9V3JGl1Kdx17sB_CRehY-181">
          <mxGeometry x="30" width="150" height="30" as="geometry">
            <mxRectangle width="150" height="30" as="alternateBounds" />
          </mxGeometry>
        </mxCell>
        <mxCell id="9V3JGl1Kdx17sB_CRehY-193" value="" style="edgeStyle=entityRelationEdgeStyle;fontSize=12;html=1;endArrow=ERoneToMany;rounded=1;curved=1;strokeColor=#E07A5F;fontColor=#393C56;labelBackgroundColor=#F4F1DE;" edge="1" parent="1" source="9V3JGl1Kdx17sB_CRehY-178" target="9V3JGl1Kdx17sB_CRehY-190">
          <mxGeometry width="100" height="100" relative="1" as="geometry">
            <mxPoint x="975" y="689" as="sourcePoint" />
            <mxPoint x="1075" y="589" as="targetPoint" />
          </mxGeometry>
        </mxCell>
        <mxCell id="9V3JGl1Kdx17sB_CRehY-197" value="genre" style="shape=table;startSize=30;container=1;collapsible=1;childLayout=tableLayout;fixedRows=1;rowLines=0;fontStyle=1;align=center;resizeLast=1;rounded=1;fillColor=#F2CC8F;strokeColor=#E07A5F;fontColor=#393C56;" vertex="1" parent="1">
          <mxGeometry x="775" y="329" width="180" height="120" as="geometry" />
        </mxCell>
        <mxCell id="9V3JGl1Kdx17sB_CRehY-198" value="" style="shape=tableRow;horizontal=0;startSize=0;swimlaneHead=0;swimlaneBody=0;fillColor=none;collapsible=0;dropTarget=0;points=[[0,0.5],[1,0.5]];portConstraint=eastwest;top=0;left=0;right=0;bottom=1;rounded=1;strokeColor=#E07A5F;fontColor=#393C56;" vertex="1" parent="9V3JGl1Kdx17sB_CRehY-197">
          <mxGeometry y="30" width="180" height="30" as="geometry" />
        </mxCell>
        <mxCell id="9V3JGl1Kdx17sB_CRehY-199" value="PK" style="shape=partialRectangle;connectable=0;fillColor=none;top=0;left=0;bottom=0;right=0;fontStyle=1;overflow=hidden;rounded=1;strokeColor=#E07A5F;fontColor=#393C56;" vertex="1" parent="9V3JGl1Kdx17sB_CRehY-198">
          <mxGeometry width="30" height="30" as="geometry">
            <mxRectangle width="30" height="30" as="alternateBounds" />
          </mxGeometry>
        </mxCell>
        <mxCell id="9V3JGl1Kdx17sB_CRehY-200" value="genre_id" style="shape=partialRectangle;connectable=0;fillColor=none;top=0;left=0;bottom=0;right=0;align=left;spacingLeft=6;fontStyle=5;overflow=hidden;rounded=1;strokeColor=#E07A5F;fontColor=#393C56;" vertex="1" parent="9V3JGl1Kdx17sB_CRehY-198">
          <mxGeometry x="30" width="150" height="30" as="geometry">
            <mxRectangle width="150" height="30" as="alternateBounds" />
          </mxGeometry>
        </mxCell>
        <mxCell id="9V3JGl1Kdx17sB_CRehY-214" style="shape=tableRow;horizontal=0;startSize=0;swimlaneHead=0;swimlaneBody=0;fillColor=none;collapsible=0;dropTarget=0;points=[[0,0.5],[1,0.5]];portConstraint=eastwest;top=0;left=0;right=0;bottom=0;rounded=1;strokeColor=#E07A5F;fontColor=#393C56;" vertex="1" parent="9V3JGl1Kdx17sB_CRehY-197">
          <mxGeometry y="60" width="180" height="30" as="geometry" />
        </mxCell>
        <mxCell id="9V3JGl1Kdx17sB_CRehY-215" style="shape=partialRectangle;connectable=0;fillColor=none;top=0;left=0;bottom=0;right=0;editable=1;overflow=hidden;rounded=1;strokeColor=#E07A5F;fontColor=#393C56;" vertex="1" parent="9V3JGl1Kdx17sB_CRehY-214">
          <mxGeometry width="30" height="30" as="geometry">
            <mxRectangle width="30" height="30" as="alternateBounds" />
          </mxGeometry>
        </mxCell>
        <mxCell id="9V3JGl1Kdx17sB_CRehY-216" value="genre_name" style="shape=partialRectangle;connectable=0;fillColor=none;top=0;left=0;bottom=0;right=0;align=left;spacingLeft=6;overflow=hidden;rounded=1;strokeColor=#E07A5F;fontColor=#393C56;" vertex="1" parent="9V3JGl1Kdx17sB_CRehY-214">
          <mxGeometry x="30" width="150" height="30" as="geometry">
            <mxRectangle width="150" height="30" as="alternateBounds" />
          </mxGeometry>
        </mxCell>
        <mxCell id="9V3JGl1Kdx17sB_CRehY-201" value="" style="shape=tableRow;horizontal=0;startSize=0;swimlaneHead=0;swimlaneBody=0;fillColor=none;collapsible=0;dropTarget=0;points=[[0,0.5],[1,0.5]];portConstraint=eastwest;top=0;left=0;right=0;bottom=0;rounded=1;strokeColor=#E07A5F;fontColor=#393C56;" vertex="1" parent="9V3JGl1Kdx17sB_CRehY-197">
          <mxGeometry y="90" width="180" height="30" as="geometry" />
        </mxCell>
        <mxCell id="9V3JGl1Kdx17sB_CRehY-202" value="" style="shape=partialRectangle;connectable=0;fillColor=none;top=0;left=0;bottom=0;right=0;editable=1;overflow=hidden;rounded=1;strokeColor=#E07A5F;fontColor=#393C56;" vertex="1" parent="9V3JGl1Kdx17sB_CRehY-201">
          <mxGeometry width="30" height="30" as="geometry">
            <mxRectangle width="30" height="30" as="alternateBounds" />
          </mxGeometry>
        </mxCell>
        <mxCell id="9V3JGl1Kdx17sB_CRehY-203" value="description" style="shape=partialRectangle;connectable=0;fillColor=none;top=0;left=0;bottom=0;right=0;align=left;spacingLeft=6;overflow=hidden;rounded=1;strokeColor=#E07A5F;fontColor=#393C56;" vertex="1" parent="9V3JGl1Kdx17sB_CRehY-201">
          <mxGeometry x="30" width="150" height="30" as="geometry">
            <mxRectangle width="150" height="30" as="alternateBounds" />
          </mxGeometry>
        </mxCell>
        <mxCell id="9V3JGl1Kdx17sB_CRehY-210" value="" style="edgeStyle=entityRelationEdgeStyle;fontSize=12;html=1;endArrow=ERoneToMany;rounded=1;curved=1;strokeColor=#E07A5F;fontColor=#393C56;labelBackgroundColor=#F4F1DE;" edge="1" parent="1" source="9V3JGl1Kdx17sB_CRehY-198" target="9V3JGl1Kdx17sB_CRehY-194">
          <mxGeometry width="100" height="100" relative="1" as="geometry">
            <mxPoint x="895" y="329" as="sourcePoint" />
            <mxPoint x="915" y="509" as="targetPoint" />
          </mxGeometry>
        </mxCell>
        <mxCell id="9V3JGl1Kdx17sB_CRehY-217" value="" style="edgeStyle=entityRelationEdgeStyle;fontSize=12;html=1;endArrow=ERoneToMany;rounded=1;curved=1;strokeColor=#E07A5F;fontColor=#393C56;labelBackgroundColor=#F4F1DE;" edge="1" parent="1" source="9V3JGl1Kdx17sB_CRehY-99" target="9V3JGl1Kdx17sB_CRehY-132">
          <mxGeometry width="100" height="100" relative="1" as="geometry">
            <mxPoint x="115" y="389" as="sourcePoint" />
            <mxPoint x="215" y="289" as="targetPoint" />
          </mxGeometry>
        </mxCell>
      </root>
    </mxGraphModel>
  </diagram>
</mxfile>
